<svg xmlns="http://www.w3.org/2000/svg" x="0px" y="0px"
width="16" height="16"
viewBox="0 0 172 172"
style=" fill:#000000;"><g fill="none" fill-rule="nonzero" stroke="none" stroke-width="1" stroke-linecap="butt" stroke-linejoin="miter" stroke-miterlimit="10" stroke-dasharray="" stroke-dashoffset="0" font-family="none" font-weight="none" font-size="none" text-anchor="none" style="mix-blend-mode: normal"><path d="M0,172v-172h172v172z" fill="none"></path><g id="original-icon" fill="#ffffff"><path d="M136.16667,21.5h-100.33333c-7.91917,0 -14.33333,6.41417 -14.33333,14.33333v100.33333c0,7.91917 6.41417,14.33333 14.33333,14.33333h100.33333c7.91917,0 14.33333,-6.41417 14.33333,-14.33333v-100.33333c0,-7.91917 -6.41417,-14.33333 -14.33333,-14.33333zM121.83333,111.72833l-10.105,10.105l-25.72833,-25.72833l-25.72833,25.72833l-10.105,-10.105l25.72833,-25.72833l-25.72833,-25.72833l10.105,-10.105l25.72833,25.72833l25.72833,-25.72833l10.105,10.105l-25.72833,25.72833z"></path></g></g></svg>